<svg width="417" height="203" viewBox="0 0 417 203" fill="none" xmlns="http://www.w3.org/2000/svg">
<path d="M357.905 110.8L415.145 201.709H10.0954H2.14545L10.0954 192.241L66.5405 110.8L84.8244 103.623L120.997 55.7755L152.399 81.1345L212.819 1.70853L249.786 55.7755H261.313L276.816 77.7855L303.448 55.7755L340.415 103.623L357.905 110.8Z" fill="#020202"/>
<path d="M6.51794 197.403L10.0954 192.241M10.0954 192.241L66.5405 110.8L84.8244 103.623L120.997 55.7755L152.399 81.1345L212.819 1.70853L249.786 55.7755H261.313L276.816 77.7855L303.448 55.7755L340.415 103.623L357.905 110.8L415.145 201.709H10.0954H2.14545L10.0954 192.241Z" stroke="black" stroke-width="2"/>
<path d="M195.726 92.1395L212.819 64.8664C208.685 64.8664 211.096 33.6064 212.819 17.9764L156.772 92.1395L148.424 117.977L188.969 74.9145L195.726 92.1395Z" fill="white"/>
<path d="M124.177 103.144L106.289 130.417V110.8L92.7744 125.632L73.6954 130.417L54.6154 144.771L73.6954 117.977L92.7744 110.8L124.177 70.1295V92.1395V103.144Z" fill="white"/>
<path d="M312.988 103.144L319.348 125.632L287.151 82.5695L301.04 70.1295L307.026 92.1395L312.988 103.144Z" fill="white"/>
<path d="M195.726 92.1395L212.819 64.8664C208.685 64.8664 211.096 33.6064 212.819 17.9764L156.772 92.1395L148.424 117.977L188.969 74.9145L195.726 92.1395Z" stroke="white" stroke-width="2"/>
<path d="M124.177 103.144L106.289 130.417V110.8L92.7744 125.632L73.6954 130.417L54.6154 144.771L73.6954 117.977L92.7744 110.8L124.177 70.1295V92.1395V103.144Z" stroke="white" stroke-width="2"/>
<path d="M312.988 103.144L319.348 125.632L287.151 82.5695L301.04 70.1295L307.026 92.1395L312.988 103.144Z" stroke="white" stroke-width="2"/>
<path fill-rule="evenodd" clip-rule="evenodd" d="M220.98 139.744C226.717 147.367 229.586 156.608 228.419 167.043C226.946 180.205 211.531 189.837 211.531 189.837C211.531 189.837 195.675 179.105 194.644 167.043C193.75 156.588 196.514 147.358 202.157 139.744H220.98Z" fill="#F6CC1F"/>
<path fill-rule="evenodd" clip-rule="evenodd" d="M222.314 138.87C228.268 146.781 231.251 156.371 230.039 167.201C228.498 180.976 212.437 191.102 212.437 191.102C211.871 191.456 211.127 191.443 210.575 191.069C210.575 191.069 204.689 187.089 199.752 181.217C196.366 177.19 193.457 172.281 193.02 167.164C192.094 156.329 194.97 146.768 200.817 138.879C201.122 138.468 201.622 138.223 202.157 138.223H220.98C221.511 138.223 222.009 138.464 222.314 138.87ZM220.124 141.265H203.021C197.905 148.475 195.432 157.144 196.268 166.922C196.656 171.455 199.315 175.77 202.315 179.338C205.808 183.492 209.805 186.642 211.569 187.947C214.847 185.685 225.61 177.507 226.798 166.885C227.889 157.139 225.325 148.473 220.124 141.265Z" fill="black"/>
<path fill-rule="evenodd" clip-rule="evenodd" d="M211.577 113.702C221.45 113.682 224.738 119.472 224.738 126.58C224.738 133.688 218.841 139.459 211.577 139.459C204.314 139.459 198.417 133.688 198.417 126.58C198.417 119.472 201.919 113.721 211.577 113.702Z" fill="#F6CC1F"/>
<path fill-rule="evenodd" clip-rule="evenodd" d="M173.683 152.924C164.423 151.85 156.172 144.753 156.515 137.051C156.839 129.758 165.849 123.874 174.172 122.9C189.585 121.095 202.025 128.34 211.248 138.424L211.278 138.425C211.273 138.43 211.268 138.436 211.262 138.442C211.268 138.447 211.272 138.453 211.277 138.459H211.247C201.904 147.972 189.099 154.713 173.683 152.924Z" fill="#F6CC1F"/>
<path fill-rule="evenodd" clip-rule="evenodd" d="M212.323 137.257C212.505 137.399 212.654 137.579 212.757 137.787C212.864 138.003 212.913 138.236 212.907 138.465C212.905 138.694 212.849 138.925 212.736 139.138C212.624 139.346 212.467 139.523 212.277 139.66C202.606 149.431 189.37 156.278 173.482 154.434C163.379 153.262 154.513 145.391 154.887 136.988C155.033 133.709 156.703 130.666 159.299 128.145C163.01 124.542 168.62 122.016 173.969 121.39C189.877 119.528 202.766 126.883 212.323 137.257ZM209.067 138.404C200.299 129.229 188.684 122.734 174.374 124.409C169.736 124.952 164.865 127.13 161.648 130.254C159.625 132.218 158.256 134.559 158.143 137.115C157.831 144.115 165.467 150.438 173.884 151.415C188.202 153.076 200.161 147.053 209.067 138.404Z" fill="black"/>
<path fill-rule="evenodd" clip-rule="evenodd" d="M189.906 161.138C182.911 163.404 174.373 161.054 171.725 155.459C169.217 150.161 173.422 143.023 178.98 139.605C189.275 133.275 200.85 134.359 211.201 138.518L211.223 138.509C211.221 138.515 211.22 138.52 211.218 138.526C211.224 138.529 211.229 138.531 211.235 138.534L211.214 138.543C208.134 148.374 201.551 157.364 189.906 161.138Z" fill="#F6CC1F"/>
<path fill-rule="evenodd" clip-rule="evenodd" d="M211.636 137.037C211.856 137.091 212.065 137.188 212.248 137.326C212.445 137.476 212.599 137.662 212.701 137.87C212.808 138.075 212.866 138.304 212.864 138.541C212.863 138.764 212.81 138.979 212.713 139.173C209.465 149.38 202.543 158.653 190.44 162.575C182.642 165.102 173.186 162.311 170.235 156.074C169.075 153.623 169.115 150.833 170.042 148.113C171.353 144.268 174.45 140.569 178.084 138.335C188.802 131.743 200.842 132.749 211.636 137.037ZM209.225 139.401C199.716 135.871 189.238 135.118 179.876 140.875C176.84 142.743 174.242 145.824 173.147 149.036C172.471 151.02 172.369 153.056 173.215 154.844C175.56 159.797 183.179 161.707 189.371 159.701C199.968 156.267 206.131 148.271 209.225 139.401Z" fill="black"/>
<path fill-rule="evenodd" clip-rule="evenodd" d="M249.471 152.924C258.731 151.85 266.982 144.753 266.64 137.051C266.315 129.758 257.305 123.874 248.983 122.9C233.569 121.095 221.129 128.34 211.907 138.424L211.877 138.425C211.882 138.43 211.887 138.436 211.892 138.442C211.887 138.447 211.882 138.453 211.878 138.459H211.907C221.251 147.972 234.056 154.713 249.471 152.924Z" fill="#F6CC1F"/>
<path fill-rule="evenodd" clip-rule="evenodd" d="M210.832 137.257C220.389 126.883 233.278 119.528 249.185 121.39C254.535 122.016 260.145 124.542 263.856 128.145C266.452 130.666 268.122 133.709 268.268 136.988C268.641 145.391 259.776 153.262 249.673 154.434C233.784 156.278 220.549 149.431 210.877 139.66C210.688 139.523 210.531 139.346 210.419 139.138C210.305 138.925 210.249 138.694 210.248 138.465C210.241 138.236 210.29 138.003 210.398 137.787C210.5 137.579 210.65 137.399 210.832 137.257ZM214.088 138.404C222.993 147.053 234.953 153.076 249.271 151.415C257.688 150.438 265.324 144.115 265.012 137.115C264.898 134.559 263.53 132.218 261.507 130.254C258.29 127.13 253.418 124.952 248.78 124.409C234.471 122.734 222.856 129.229 214.088 138.404Z" fill="black"/>
<path fill-rule="evenodd" clip-rule="evenodd" d="M233.249 161.138C240.244 163.404 248.782 161.054 251.43 155.459C253.937 150.161 249.732 143.023 244.174 139.605C233.88 133.275 222.305 134.359 211.953 138.518L211.932 138.509C211.933 138.515 211.935 138.52 211.936 138.526C211.931 138.529 211.925 138.531 211.919 138.534L211.941 138.543C215.02 148.374 221.604 157.364 233.249 161.138Z" fill="#F6CC1F"/>
<path fill-rule="evenodd" clip-rule="evenodd" d="M210.453 137.87C210.556 137.662 210.709 137.476 210.906 137.326C211.09 137.188 211.299 137.091 211.519 137.037C222.313 132.749 234.353 131.743 245.07 138.335C248.705 140.569 251.802 144.268 253.112 148.113C254.04 150.833 254.08 153.623 252.92 156.074C249.968 162.311 240.512 165.102 232.714 162.575C220.611 158.653 213.69 149.38 210.441 139.173C210.345 138.979 210.291 138.764 210.29 138.541C210.289 138.304 210.347 138.075 210.453 137.87ZM213.93 139.401C217.023 148.271 223.186 156.267 233.783 159.701C239.976 161.707 247.595 159.797 249.939 154.844C250.785 153.056 250.684 151.02 250.007 149.036C248.913 145.824 246.314 142.743 243.278 140.875C233.916 135.118 223.44 135.871 213.93 139.401Z" fill="black"/>
<path fill-rule="evenodd" clip-rule="evenodd" d="M227.91 163.141C228.764 162.877 229.686 163.309 229.968 164.107C230.251 164.904 229.788 165.765 228.934 166.029C217.616 169.527 206.053 169.617 194.23 166.032C193.374 165.772 192.905 164.913 193.183 164.115C193.461 163.316 194.381 162.878 195.236 163.138C206.368 166.514 217.254 166.434 227.91 163.141Z" fill="black"/>
<path fill-rule="evenodd" clip-rule="evenodd" d="M225.03 174.096C225.898 173.876 226.794 174.355 227.029 175.165C227.265 175.975 226.752 176.812 225.884 177.032C216.518 179.407 206.984 179.452 197.275 177.015C196.406 176.797 195.891 175.962 196.124 175.151C196.358 174.34 197.252 173.859 198.12 174.077C207.253 176.368 216.22 176.329 225.03 174.096Z" fill="black"/>
<path fill-rule="evenodd" clip-rule="evenodd" d="M215.192 185.122C216.089 185.062 216.869 185.694 216.933 186.531C216.997 187.369 216.32 188.097 215.423 188.157C212.76 188.334 210.084 188.323 207.394 188.121C206.498 188.054 205.829 187.32 205.9 186.483C205.973 185.646 206.759 185.021 207.655 185.088C210.18 185.277 212.692 185.288 215.192 185.122Z" fill="black"/>
<path fill-rule="evenodd" clip-rule="evenodd" d="M221.315 153.208C222.197 153.043 223.056 153.578 223.232 154.402C223.408 155.225 222.835 156.027 221.953 156.192C215.13 157.464 208.218 157.502 201.213 156.248C200.33 156.089 199.751 155.291 199.921 154.467C200.09 153.642 200.944 153.101 201.827 153.259C208.409 154.438 214.904 154.404 221.315 153.208Z" fill="black"/>
<path fill-rule="evenodd" clip-rule="evenodd" d="M208.751 116.712C209.3 117.381 209.133 118.318 208.379 118.805C207.624 119.291 207.114 118.251 206.565 117.582C203.714 114.111 200.185 111.565 196.026 108.528C195.305 108.003 194.814 107.197 195.407 106.559C196.001 105.92 197.067 105.829 197.788 106.355C202.18 109.562 205.74 113.045 208.751 116.712Z" fill="#F6CC1F"/>
<path fill-rule="evenodd" clip-rule="evenodd" d="M195.524 101.989C197.463 101.989 199.037 103.567 199.037 105.51C199.037 107.453 197.463 109.031 195.524 109.031C193.585 109.031 192.011 107.453 192.011 105.51C192.011 103.567 193.585 101.989 195.524 101.989Z" fill="#F6CC1F"/>
<path fill-rule="evenodd" clip-rule="evenodd" d="M217.607 117.582C217.096 118.251 216.444 119.291 215.743 118.805C215.042 118.318 214.888 117.381 215.398 116.712C218.193 113.045 221.499 109.562 225.578 106.355C226.247 105.829 227.237 105.92 227.788 106.559C228.339 107.197 228.243 108.142 227.575 108.667C223.127 111.043 220.253 114.111 217.607 117.582Z" fill="#F6CC1F"/>
<path fill-rule="evenodd" clip-rule="evenodd" d="M227.644 101.989C225.705 101.989 224.131 103.567 224.131 105.51C224.131 107.453 225.705 109.031 227.644 109.031C229.583 109.031 231.157 107.453 231.157 105.51C231.157 103.567 229.583 101.989 227.644 101.989Z" fill="#F6CC1F"/>
</svg>
